<svg xmlns="http://www.w3.org/2000/svg" viewBox="0 0 28 73"><path fill="#4D4D4D" d="M28 10.6c0-1.1-.9-2-2-2h-2.3V2c0-1.1-.9-2-2-2h-1.4c-1.1 0-2 .9-2 2v6.7h-7.1V2c0-1.1-.9-2-2-2H8C6.9 0 6 .9 6 2v6.7H3.7c-1.1 0-2 .9-2 2v14.8c0 .2 0 .4.1.6-.2.4-.1.8.2 1.1l9.2 8.6v10.5s0 .8-.3 1.6c-.3.7-.9 1.7-2.9 2.1-3.5.7-5.8 2.5-7 5.4-.9 2.3-1 4.8-1 7.6v6.5c0 2 1.6 3.6 3.6 3.6s3.6-1.6 3.6-3.6V63c0-5.6.6-5.7 2.3-6.1 3.9-.8 6.8-3 8.2-6.3.9-2.1.9-4.1.9-4.7V35.7l9.2-8.6c.3-.3.4-.7.2-1.1.1-.2.1-.4.1-.6L28 10.6z"/></svg>