<svg xmlns="http://www.w3.org/2000/svg" viewBox="0 0 192 45"><path fill="#D7000F" d="M65.6 32.1c-.8 0-.8.9-.8 2 0 1.2.1 2 .8 2 .6 0 .8-.6.8-2 0-1.5-.2-2-.8-2m21.9.1c-.7 0-.8.7-.8 1.9 0 1.3.1 1.9.8 1.9.7 0 .8-.7.8-1.9 0-1.3-.1-1.9-.8-1.9m-6.3 3.1c0 .4.2.8.6.8.4 0 .9-.3.9-.9v-1.1c-.2.1-.5.2-.7.3-.5.1-.8.4-.8.9M70.8 20.8c0 1 .4 1.8 1.3 1.8s2.1-.6 2.1-2V18c-.5.3-1 .6-1.5.7-1.3.3-1.9 1-1.9 2.1M35.7 35.3c0 .4.2.8.6.8.4 0 .9-.3.9-.9v-1.1c-.2.1-.5.2-.7.3-.6.1-.8.4-.8.9m-2.4-14.5c0 1 .4 1.8 1.3 1.8s2.1-.6 2.1-2V18c-.5.3-1 .6-1.5.7-1.4.3-1.9 1-1.9 2.1m19.9 11.3c-.8 0-.8.9-.8 2 0 1.2.1 2 .8 2 .6 0 .8-.6.8-2 .1-1.5-.2-2-.8-2M0 0v32.6c0 6.7 5.7 12.2 12.6 12.2h89.8c6.9 0 12.6-5.5 12.6-12.2V0H0zm78.6 11.6h1.7v-1.5C80.4 7.7 81.7 7 84 7c.6 0 1.2 0 1.8.1v2.4h-.7c-1 0-1.3.3-1.3 1v1.1h2v2.3h-2v10.8h-3.4V13.8h-1.7v-2.2zM42.2 7.3h3.4v5.5h.1c.7-1 1.6-1.6 2.9-1.6 2.8 0 4.1 2 4.1 6.9 0 4.8-1.3 6.9-4.1 6.9-1.3 0-2.3-.5-3-1.7v1.4h-3.3V7.3zm-7.1 3.9c4.1 0 4.8 1.7 4.8 4v6.9c0 1.2.1 1.8.4 2.5H37c-.2-.4-.3-.9-.4-1.4h-.1c-.8 1.4-1.8 1.7-3.4 1.7-2.4 0-3.2-2-3.2-3.7 0-2.4 1-3.4 3.4-4.1l1.9-.5c1-.3 1.4-.7 1.4-1.5 0-1-.4-1.6-1.6-1.6-1 0-1.6.7-1.6 1.7v.4h-3.1v-.3c.1-3.1 2.2-4.1 4.8-4.1M20.6 7.3h9.9v2.9h-6.3v4.1H29v2.9h-4.9v7.5h-3.6V7.3zM27.1 37h-1.7l-.8-4.1-.8 4.1H22l-1.3-5.8h1.5l.7 4.1.7-4.1h1.7l.8 4.1.7-4.1h1.5L27.1 37zm6.4 0H32v-4c0-.6-.2-.8-.7-.8-.5 0-.8.3-.8 1V37H29v-7.7h1.5v2.5c.3-.5.8-.7 1.5-.7 1 0 1.5.5 1.5 1.7V37zm3.9 0c-.1-.2-.1-.4-.2-.6-.4.6-.8.8-1.5.8-1.1 0-1.4-.9-1.4-1.7 0-1.1.5-1.5 1.5-1.8l.9-.2c.5-.1.6-.3.6-.7 0-.4-.2-.7-.7-.7-.5 0-.7.3-.7.8v.1h-1.4v-.1c0-1.3.9-1.8 2.1-1.8 1.8 0 2.2.7 2.2 1.8V36c0 .5 0 .8.2 1.1h-1.6zm4.9-4.8h-.9v3.2c0 .5.1.6.5.6h.3v1c-.3 0-.6.1-1 .1-1.2 0-1.4-.4-1.4-1.5v-3.3H39v-1h.8v-1.7h1.5v1.7h.9v.9zm7.8 4.8h-1.5v-.6c-.3.5-.8.8-1.4.8-1.3 0-1.8-.9-1.8-3.1S46 31 47.2 31c.6 0 1 .2 1.3.7v-2.5H50V37zm3.1.2c-1.9 0-2.4-1-2.4-3.1 0-2 .6-3.1 2.4-3.1 1.8 0 2.4 1 2.4 3.1 0 2-.6 3.1-2.4 3.1m1.3-21.3c0-5.3.7-9 6-9 5.1 0 5.5 3.7 5.5 6.2h-3.6c0-2.5-.5-3.6-2.1-3.6-1.8 0-2.2 1.8-2.2 6.7 0 5.2.7 6.2 2.3 6.2 1.3 0 2.2-.7 2.2-4.4h3.6c0 3.7-.9 7-5.6 7-5.4-.1-6.1-3.8-6.1-9.1m7.1 20.7c-.5 2-.9 2.3-2.3 2.3h-.6v-1.1h.4c.6 0 .8-.3.8-.8l-1.7-5.8h1.6l.9 4 .8-4H63l-1.4 5.4zm4 .6c-1.8 0-2.4-1-2.4-3.1 0-2 .6-3.1 2.4-3.1 1.8 0 2.4 1 2.4 3.1-.1 2-.7 3.1-2.4 3.1m7.6-.2h-1.5v-.7c-.3.6-.9.8-1.5.8-1 0-1.5-.5-1.5-1.7v-4.3h1.5v4c0 .6.2.8.7.8.5 0 .8-.3.8-1V31h1.5v6zm1-13.8c-.8 1.4-1.8 1.7-3.5 1.7-2.4 0-3.2-2-3.2-3.7 0-2.4 1-3.4 3.4-4.1l1.9-.5c1-.3 1.4-.7 1.4-1.5 0-1-.4-1.6-1.6-1.6-1 0-1.6.7-1.6 1.7v.4h-3v-.3c0-3 2.1-4 4.7-4 4.1 0 4.9 1.7 4.9 4v6.9c0 1.2.1 1.8.4 2.5h-3.3c-.3-.5-.4-1-.5-1.5m5.2 7h-.3c-.4 0-.6.1-.6.5v.5h.9v1h-.9V37H77v-4.8h-.8v-1h.8v-.7c0-1.1.6-1.4 1.6-1.4h.8v1.1zm3.5 6.8c-.1-.2-.1-.4-.2-.6-.4.6-.8.8-1.5.8-1.1 0-1.4-.9-1.4-1.7 0-1.1.5-1.5 1.5-1.8l.9-.2c.5-.1.6-.3.6-.7 0-.4-.2-.7-.7-.7-.5 0-.7.3-.7.8v.1H80v-.1c0-1.3.9-1.8 2.1-1.8 1.8 0 2.2.7 2.2 1.8V36c0 .5 0 .8.2 1.1h-1.6zm5.1.2c-.6 0-1-.2-1.4-.8v.6h-1.5v-7.7h1.5v2.5c.3-.5.7-.7 1.3-.7 1.3 0 1.8.9 1.8 3.1.2 2.1-.4 3-1.7 3m6-.2h-1.5v-1.4H94V37zm.9-4l-.4.5c-.4.4-.5.7-.5 1.3v.2h-1.4v-.4c0-.7.2-1.2.7-1.7l.4-.5c.3-.3.4-.7.4-1.1 0-.6-.3-.9-.8-.9-.6 0-.8.5-.8 1.2v.3H91v-.2c0-1.3.7-2.2 2.2-2.2 1.6 0 2.3.8 2.3 2.1.1.3 0 .8-.6 1.4m1.6-14.4h-6.8v1c0 1.5.4 3 1.7 3 1.1 0 1.6-.8 1.8-2.5h3.1c-.1 3-1.6 4.7-4.8 4.7-5 0-5.2-3.7-5.2-7 0-3.5.7-6.7 5.3-6.7 4 0 4.9 2.6 4.9 6.6v.9zM47.7 32.2c-.7 0-.8.7-.8 1.9 0 1.3.1 1.9.8 1.9.7 0 .8-.7.8-1.9.1-1.3-.1-1.9-.8-1.9m43.8-18.7c-1.4 0-1.8 1.4-1.8 2.6v.5h3.5c0-2-.3-3.1-1.7-3.1m-44.1 8.9c1.5 0 1.8-1.5 1.8-4.3s-.3-4.3-1.8-4.3-1.8 1.5-1.8 4.3.3 4.3 1.8 4.3"/><path fill="#83756D" d="M118.9 0v32.7c0 5.5-2.6 10.5-7.1 12.3h67.6c6.9 0 12.6-5.5 12.6-12.3V0h-73.1z"/><g fill="#FFF"><path d="M133.4 8.3V12h2v2.3h-2v7c0 .5.1.9.2 1.1.2.2.5.3 1 .3h.8V25h-2.2c-.7 0-1.2 0-1.6-.1-.4-.1-.7-.3-1-.5-.2-.3-.4-.6-.5-1.1-.1-.4-.1-1-.1-1.6v-7.4h-1.7V12h1.7V8.3h3.4zM136.4 15.6c.2-.9.5-1.6.9-2.1.4-.6 1-1 1.6-1.3.7-.3 1.5-.4 2.5-.4s1.9.1 2.6.4c.7.3 1.2.7 1.6 1.3.4.6.7 1.3.8 2.2.2.9.2 1.9.2 3s-.1 2.1-.3 2.9c-.2.9-.5 1.6-.9 2.1-.4.6-1 1-1.6 1.3-.7.3-1.5.4-2.5.4s-1.9-.1-2.6-.4c-.7-.3-1.2-.7-1.6-1.3-.4-.6-.7-1.3-.8-2.2-.2-.9-.2-1.9-.2-3s.1-2.1.3-2.9zm3.2 4.8c0 .6.1 1 .2 1.4.1.4.3.7.6.9.2.2.6.3 1 .3.7 0 1.2-.4 1.4-1.1.3-.7.4-1.9.4-3.5s-.1-2.8-.4-3.5c-.3-.7-.7-1.1-1.4-1.1-.4 0-.7.1-1 .3-.2.2-.4.5-.6.9-.1.4-.2.9-.2 1.4v1.8c-.1 1-.1 1.6 0 2.2zM152 16.9l3.5-4.9h3.8l-3.8 5.1 4.4 7.9h-3.8l-2.9-5.3-1.2 1.5V25h-3.4V7.8h3.4v9.1zM161.7 26.8c.6 0 1.1-.2 1.4-.5.3-.3.4-.7.5-1.3l-3.7-13h3.6l2 9 1.7-9h3.4l-3.2 12.1c-.3 1.1-.6 2-.9 2.6-.3.7-.6 1.2-1 1.5-.4.4-.8.6-1.3.7-.5.1-1.2.2-2 .2h-1.4v-2.5c.4.2.6.2.9.2zM171.7 15.6c.2-.9.5-1.6.9-2.1.4-.6 1-1 1.6-1.3.7-.3 1.5-.4 2.5-.4s1.9.1 2.6.4c.7.3 1.2.7 1.6 1.3.4.6.7 1.3.8 2.2.2.9.2 1.9.2 3s-.1 2.1-.3 2.9c-.2.9-.5 1.6-.9 2.1-.4.6-1 1-1.6 1.3-.7.3-1.5.4-2.5.4s-1.9-.1-2.6-.4c-.7-.3-1.2-.7-1.6-1.3-.4-.6-.7-1.3-.8-2.2-.2-.9-.2-1.9-.2-3s.1-2.1.3-2.9zm3.2 4.8c0 .6.1 1 .2 1.4.1.4.3.7.6.9.2.2.6.3 1 .3.7 0 1.2-.4 1.4-1.1.3-.7.4-1.9.4-3.5s-.1-2.8-.4-3.5c-.3-.7-.7-1.1-1.4-1.1-.4 0-.7.1-1 .3-.2.2-.4.5-.6.9-.1.4-.2.9-.2 1.4v1.8c-.1 1 0 1.6 0 2.2z"/></g></svg>