<svg xmlns="http://www.w3.org/2000/svg" viewBox="0 0 133 38"><g fill="#1A1A1A"><path d="M0 0h3.8v3.8H0zM0 15.1h3.8v3.8H0zM15.2 0H19v3.8h-3.8zM7.6 0h3.8v3.8H7.6zM0 7.6h3.8v3.8H0zM15.2 7.6H19v3.8h-3.8zM7.6 7.6h3.8v3.8H7.6zM7.6 15.1h3.8v3.8H7.6zM15.2 15.1H19v3.8h-3.8z"/></g><g fill="#1A1A1A"><path d="M19 18.9h13.3v3.8H19zM19 34h3.8v3.8H19zM34.2 18.9H38v3.8h-3.8zM19 26.5h19v3.8H19zM24.7 34H38v3.8H24.7z"/></g><g fill="#1A1A1A"><ellipse cx="3.8" cy="22.7" rx="3.8" ry="3.8"/><ellipse cx="15.2" cy="22.7" rx="3.8" ry="3.8"/><ellipse cx="3.8" cy="34" rx="3.8" ry="3.8"/><ellipse cx="15.2" cy="34" rx="3.8" ry="3.8"/></g><path fill="#1A1A1A" d="M28.5 0C23.3 0 19 4.2 19 9.5c0 5.2 4.3 9.5 9.5 9.5S38 14.8 38 9.5 33.7 0 28.5 0zm0 13.2c-2.1 0-3.8-1.7-3.8-3.8s1.7-3.8 3.8-3.8 3.8 1.7 3.8 3.8-1.7 3.8-3.8 3.8z"/><g fill="#1A1A1A"><path d="M57 26.5h1.5v5.1l5-5.2h1.9l-5.1 5.3 5.6 6.1h-2L58.5 32v5.8H57V26.5z"/><path d="M69.7 32.7l-4.4-6.2H67l1.9 2.8c.5.7 1 1.4 1.5 2.2.5-.7 1-1.4 1.5-2.2l1.9-2.8h1.7l-4.4 6.2v5.1h-1.5v-5.1zM81.7 26.3c3.3 0 5.8 2.6 5.8 5.8 0 3.3-2.5 5.8-5.8 5.8s-5.8-2.6-5.8-5.8c0-3.2 2.5-5.8 5.8-5.8zm0 10.3c2.5 0 4.3-2 4.3-4.5s-1.8-4.5-4.3-4.5-4.3 2-4.3 4.5 1.8 4.5 4.3 4.5zM91.4 27.8h-3.8v-1.3h9.1v1.3h-3.8v10h-1.5v-10zM102.7 26.3c3.3 0 5.8 2.6 5.8 5.8 0 3.3-2.5 5.8-5.8 5.8s-5.8-2.6-5.8-5.8c0-3.2 2.5-5.8 5.8-5.8zm0 10.3c2.5 0 4.3-2 4.3-4.5s-1.8-4.5-4.3-4.5-4.3 2-4.3 4.5 1.8 4.5 4.3 4.5z"/></g><g fill="#1A1A1A"><path d="M99.3 0v18.9h4.8v-7.6h1.4l4.4 7.6h5l-4.8-7.8c2.3-.7 4-2.9 4-5.4 0-3.1-2.6-5.7-5.7-5.7h-9.1zm7.8 3.8c1 0 1.9.8 1.9 1.9 0 1-.9 1.9-1.9 1.9H104V3.8h3.1zM71.7 7.9v11h4.8V0h-4.8l-5 7.5L61.8 0H57v18.9h4.8v-11l4.9 7.2M79.6 0v3.8h6v15.1h4.7V3.8h6V0M133 18.9v-3.8h-9.5V0h-4.8v18.9"/></g></svg>