<svg xmlns="http://www.w3.org/2000/svg" viewBox="0 0 94 81"><path fill="#4D4D4D" d="M56.6 26.9L76.3 7c4-4.1 10.6-4.1 14.7 0s4.1 10.8 0 14.9L71.3 41.8l-3.6-3.6 18.7-19c.6-.6.6-1.6 0-2.1-.6-.6-1.5-.6-2.1 0L65.6 36l-3.1-3.1 18.7-19c.6-.6.6-1.6 0-2.1-.6-.6-1.5-.6-2.1 0l-18.7 19-3.8-3.9zM45.8 57.8L31.4 72.4c-.8.8-1.5 1.7-2 2.7l-1.1 2L21 81l-2.9-2.9 3.6-7.6 2-1.1c1-.5 1.9-1.2 2.7-2l14.4-14.6 5 5zM17 44.3L0 27.1l5.3-5.4s4.3 2.9 7.8-.6c3.8-3.8 2.7-9.6 11.1-16C39-6.2 61.3 4.9 61.3 4.9c-17.7 1.8-25.3 9.8-18 17.3l2.5 2.5-11.9 12-2.4-2.4c-3.2-3.3-6.3-4-8.8-1.5-2.7 2.8-.4 6.1-.4 6.1L17 44.3zm31.6-16.7l-11.9 12L75 78.4c3.3 3.3 8.6 3.3 11.9 0 3.3-3.3 3.3-8.7 0-12L48.6 27.6z"/></svg>