<svg id="レイヤー_1" xmlns="http://www.w3.org/2000/svg" viewBox="0 0 61 45"><style>.st0{fill:#4D4D4D;}</style><g id="XMLID_2_"><ellipse id="XMLID_5_" class="st0" cx="30.2" cy="37.4" rx="7.7" ry="7.6"/><path id="XMLID_4_" class="st0" d="M60.9 15.4c-.1-.1-.1-.2-.2-.3C53.9 5.9 42.9 0 30.5 0 18.1 0 7.1 5.9.3 15.1c-.1.1-.1.2-.2.3-.1.1-.1.2-.1.3 0 .2.1.3.1.4l.2.2 4.6 4.9c.1.2.2.3.4.4.1.1.2.1.4.1s.4-.1.5-.2l.2-.2c5.3-7.2 14.2-11.9 24.2-11.9s18.8 4.7 24.2 11.9l.2.2c.1.1.3.2.5.2.1 0 .3 0 .4-.1.2-.1.3-.2.4-.4l4.6-4.9.2-.2c.1-.1.1-.3.1-.4-.2-.1-.2-.2-.3-.3z"/><path id="XMLID_3_" class="st0" d="M50.3 25c-4.3-5.3-11.5-8.7-19.7-8.7S15.1 19.8 10.9 25c-.1.1-.2.3-.3.4 0 .1-.1.2-.1.3 0 .1 0 .2.1.3.1.2.2.3.4.4l4.4 4.6.1.1c.1.1.3.2.5.2.1 0 .2 0 .3-.1 0 0 .1 0 .1-.1.1 0 .1-.1.2-.1 2.3-2.9 7.6-6.2 14-6.2s11.7 3.3 14 6.2c.1.1.1.1.2.1 0 0 .1 0 .1.1.1 0 .2.1.3.1.2 0 .4-.1.5-.2l.1-.1 4.4-4.6c.2-.1.3-.2.4-.4 0-.1.1-.2.1-.3 0-.1 0-.2-.1-.3-.1-.1-.2-.2-.3-.4z"/></g></svg>